
<svg width="132" height="131" viewBox="0 0 232 231" fill="" xmlns="http://www.w3.org/2000/svg">
<g clip-path="url(#clip0_359_13)">
<path d="M231.76 72.7566L193.046 216.618C192.206 219.737 189.362 221.799 186.262 221.8C185.663 221.8 185.054 221.722 184.448 221.561L89.7452 196.295C86.0064 195.297 83.7797 191.457 84.7819 187.734L85.8032 183.939C86.4472 181.547 88.9166 180.13 91.3189 180.769C93.7213 181.41 95.1469 183.869 94.5029 186.261L93.996 188.144L184.859 212.386L222.545 72.3465L184 62.0631C181.598 61.4219 180.172 58.9632 180.816 56.5712C181.46 54.1792 183.931 52.7607 186.331 53.4005L226.796 64.1961C230.536 65.1945 232.762 69.0343 231.76 72.7566ZM83.1277 27.9152C80.6403 27.9152 78.6242 29.9225 78.6242 32.3992V36.6665C78.6242 39.1432 80.6403 41.1506 83.1277 41.1506C85.6151 41.1506 87.6311 39.1432 87.6311 36.6665V32.3992C87.6311 29.9225 85.6151 27.9152 83.1277 27.9152ZM140.552 88.0676C141.654 89.6191 141.654 91.6937 140.552 93.2457L119.678 122.639C118.834 123.827 117.463 124.534 116.001 124.534C114.539 124.534 113.168 123.828 112.324 122.639L91.449 93.2457C90.3472 91.6942 90.3472 89.6196 91.449 88.0676L112.324 58.6742C113.168 57.4859 114.539 56.7789 116.001 56.7789C117.463 56.7789 118.834 57.4854 119.678 58.6742L140.552 88.0676ZM131.36 90.6564L116.001 69.0294L100.642 90.6564L116.001 112.283L131.36 90.6564ZM171.64 189.707L170.531 193.829C169.887 196.221 171.313 198.679 173.716 199.32C174.106 199.424 174.498 199.474 174.884 199.474C176.872 199.474 178.692 198.152 179.231 196.149L180.34 192.027C180.983 189.635 179.558 187.176 177.155 186.536C174.752 185.894 172.283 187.315 171.64 189.707ZM56.2305 107.574C57.52 107.23 58.7605 107.031 59.9604 106.978V16.1884C59.9604 12.3341 63.1093 9.19876 66.9798 9.19876H165.023C168.893 9.19876 172.043 12.3341 172.043 16.1884V106.978C173.242 107.031 174.482 107.229 175.771 107.573C184.033 109.777 188.954 118.264 186.74 126.49C184.599 134.449 177.758 140.494 172.043 144.627V165.124C172.043 168.978 168.893 172.114 165.023 172.114H66.9798C63.1093 172.114 59.9604 168.978 59.9604 165.124V144.628C54.245 140.496 47.4043 134.451 45.2611 126.49C44.1888 122.507 44.7397 118.344 46.8123 114.771C48.8849 111.197 52.23 108.641 56.2305 107.574ZM172.042 133.052C175.31 129.976 177.258 127.073 178.039 124.169C178.968 120.719 176.904 117.161 173.439 116.236C172.915 116.096 172.453 116.011 172.042 115.968V133.052ZM68.9673 163.146H163.035V142.37C163.035 142.33 163.035 142.29 163.035 142.25V112.403C163.034 112.338 163.034 112.273 163.035 112.208V18.1668H68.9673V112.21C68.9688 112.274 68.9688 112.34 68.9673 112.405V142.248C68.9678 142.29 68.9678 142.331 68.9673 142.373V163.146ZM53.9613 124.169C54.7434 127.074 56.6919 129.978 59.9604 133.054V115.968C59.5491 116.011 59.0867 116.096 58.5623 116.236C56.8845 116.683 55.482 117.756 54.6123 119.256C53.7431 120.755 53.5119 122.5 53.9613 124.169ZM86.8545 201.791L47.1426 212.386L9.45564 72.347L48.0007 62.0631C50.4031 61.4219 51.8292 58.9632 51.1852 56.5712C50.5412 54.1792 48.0703 52.7597 45.6699 53.4005L5.20488 64.1966C3.3965 64.6788 1.88383 65.8357 0.945614 67.454C0.00689416 69.0727 -0.243298 70.956 0.241574 72.7571L38.9563 216.617C39.4406 218.418 40.6025 219.925 42.2288 220.861C43.3126 221.483 44.514 221.802 45.7315 221.802C46.3399 221.802 46.9519 221.722 47.5549 221.562L89.1863 210.455C91.5887 209.814 93.0148 207.355 92.3708 204.964C91.7263 202.57 89.2569 201.151 86.8545 201.791ZM25.6686 78.113C23.2662 78.7542 21.8406 81.213 22.4841 83.605L23.5935 87.7273C24.1329 89.7307 25.9523 91.052 27.9408 91.052C28.3266 91.052 28.7189 91.0022 29.1092 90.898C31.5116 90.2568 32.9372 87.7981 32.2937 85.4061L31.1843 81.2837C30.5403 78.8913 28.0719 77.4723 25.6686 78.113ZM148.874 140.162C146.387 140.162 144.371 142.17 144.371 144.646V148.914C144.371 151.39 146.387 153.398 148.874 153.398C151.362 153.398 153.378 151.39 153.378 148.914V144.646C153.378 142.17 151.362 140.162 148.874 140.162Z" fill="#595959"/>
</g>
<defs>
<clipPath id="clip0_359_13">
<rect width="232" height="231" fill="white"/>
</clipPath>
</defs>
</svg>
