<svg width="132" height="131" viewBox="0 0 275 252" fill="none" xmlns="http://www.w3.org/2000/svg">
<path d="M219.141 0H55.8594C48.7513 0 42.9688 5.29889 42.9688 11.8125V240.188C42.9688 246.701 48.7513 252 55.8594 252H219.141C226.249 252 232.031 246.701 232.031 240.188V11.8125C232.031 5.29889 226.249 0 219.141 0ZM223.438 240.188C223.438 242.359 221.51 244.125 219.141 244.125H55.8594C53.4902 244.125 51.5625 242.359 51.5625 240.188V11.8125C51.5625 9.64146 53.4902 7.875 55.8594 7.875H219.141C221.51 7.875 223.438 9.64146 223.438 11.8125V240.188Z" fill="#595959"/>
<path d="M116.082 195.859C118.826 195.859 121.508 195.528 124.083 194.879C121.827 198.926 118.974 202.687 115.612 206.012C114.451 207.16 114.143 208.83 114.827 210.264C115.51 211.698 117.056 212.625 118.764 212.625H156.472C158.18 212.625 159.726 211.698 160.409 210.264C161.093 208.829 160.785 207.16 159.624 206.012C156.285 202.708 153.445 198.973 151.195 194.952C153.677 195.552 156.252 195.859 158.88 195.859C175.577 195.859 189.161 183.314 189.161 167.895C189.161 136.988 141.632 111.823 139.608 110.766C138.29 110.078 136.673 110.078 135.354 110.766C133.331 111.823 85.8018 136.988 85.8018 167.895C85.8012 183.314 99.3853 195.859 116.082 195.859ZM137.485 118.786C141.335 120.977 149.838 126.1 158.292 133.098C168.453 141.509 180.566 154.374 180.566 167.895C180.566 178.972 170.837 187.984 158.879 187.984C154.116 187.984 149.59 186.57 145.792 183.894C144.321 182.858 142.291 182.804 140.758 183.759C139.224 184.715 138.531 186.464 139.042 188.098C140.89 194.026 143.791 199.67 147.572 204.75H127.664C131.501 199.596 134.429 193.863 136.274 187.838C136.778 186.194 136.068 184.439 134.515 183.494C132.962 182.548 130.921 182.629 129.462 183.693C125.612 186.5 120.985 187.984 116.082 187.984C104.124 187.984 94.3955 178.972 94.3955 167.894C94.395 144.897 128.533 123.896 137.485 118.786Z" fill="#595959"/>
<path d="M64.4636 23.625C66.8366 23.625 68.7605 21.862 68.7605 19.6875C68.7605 17.513 66.8366 15.75 64.4636 15.75H64.4583C62.0853 15.75 60.1641 17.513 60.1641 19.6875C60.1641 21.862 62.0907 23.625 64.4636 23.625Z" fill="#595959"/>
<path d="M210.557 23.625C212.93 23.625 214.854 21.862 214.854 19.6875C214.854 17.513 212.93 15.75 210.557 15.75H210.552C208.179 15.75 206.258 17.513 206.258 19.6875C206.258 21.862 208.184 23.625 210.557 23.625Z" fill="#595959"/>
<path d="M210.557 228.375H210.552C208.179 228.375 206.258 230.138 206.258 232.312C206.258 234.487 208.184 236.25 210.557 236.25C212.931 236.25 214.854 234.487 214.854 232.312C214.854 230.138 212.93 228.375 210.557 228.375Z" fill="#595959"/>
<path d="M64.4636 228.375H64.4583C62.0853 228.375 60.1641 230.138 60.1641 232.312C60.1641 234.487 62.0901 236.25 64.4636 236.25C66.8371 236.25 68.7605 234.487 68.7605 232.312C68.7605 230.138 66.8366 228.375 64.4636 228.375Z" fill="#595959"/>
<path d="M107.422 31.5H98.8281C96.4552 31.5 94.5312 33.263 94.5312 35.4375C94.5312 37.612 96.4552 39.375 98.8281 39.375H107.422C109.795 39.375 111.719 37.612 111.719 35.4375C111.719 33.263 109.795 31.5 107.422 31.5Z" fill="#595959"/>
<path d="M176.172 31.5H124.609C122.236 31.5 120.312 33.263 120.312 35.4375C120.312 37.612 122.236 39.375 124.609 39.375H176.172C178.545 39.375 180.469 37.612 180.469 35.4375C180.469 33.263 178.545 31.5 176.172 31.5Z" fill="#595959"/>
<path d="M218.687 61.239C217.959 59.9051 216.471 59.0625 214.844 59.0625V39.375C214.844 37.2005 212.92 35.4375 210.547 35.4375C201.07 35.4375 193.359 28.3721 193.359 19.6875C193.359 17.513 191.436 15.75 189.063 15.75H85.9376C83.5646 15.75 81.6407 17.513 81.6407 19.6875C81.6407 28.3721 73.9305 35.4375 64.4532 35.4375C62.0802 35.4375 60.1563 37.2005 60.1563 39.375V59.0625C58.5289 59.0625 57.0411 59.9051 56.3133 61.239C55.5855 62.5728 55.7423 64.1689 56.7188 65.3625L67.6758 78.75L56.7188 92.1375C55.7423 93.3306 55.585 94.9267 56.3133 96.261C57.0411 97.5949 58.5289 98.4375 60.1563 98.4375V212.625C60.1563 214.799 62.0802 216.562 64.4532 216.562C73.9305 216.562 81.6407 223.628 81.6407 232.312C81.6407 234.487 83.5646 236.25 85.9376 236.25H189.063C191.436 236.25 193.359 234.487 193.359 232.312C193.359 223.628 201.07 216.562 210.547 216.562C212.92 216.562 214.844 214.799 214.844 212.625V98.4375C216.471 98.4375 217.959 97.5949 218.687 96.261C219.415 94.9272 219.258 93.3311 218.281 92.1375L207.324 78.75L218.281 65.3625C219.258 64.1694 219.415 62.5733 218.687 61.239ZM68.7501 42.9842C79.5299 41.3201 88.0602 33.5032 89.8762 23.625H185.123C186.94 33.5032 195.47 41.3201 206.25 42.9842V59.0625H68.7501V42.9842ZM76.4844 76.3875L68.7501 66.9375H206.25L198.516 76.3875C197.37 77.7873 197.37 79.7127 198.516 81.1125L206.25 90.5625H68.7501L76.4844 81.1125C77.6301 79.7127 77.6301 77.7873 76.4844 76.3875ZM206.25 209.016C195.47 210.68 186.94 218.497 185.124 228.375H89.8762C88.0602 218.497 79.5299 210.68 68.7501 209.016V98.4375H206.25V209.016Z" fill="#595959"/>
<path d="M176.172 82.6875H184.766C187.139 82.6875 189.062 80.9245 189.062 78.75C189.062 76.5755 187.139 74.8125 184.766 74.8125H176.172C173.799 74.8125 171.875 76.5755 171.875 78.75C171.875 80.9245 173.799 82.6875 176.172 82.6875Z" fill="#595959"/>
<path d="M90.2344 82.6875H158.984C161.357 82.6875 163.281 80.9245 163.281 78.75C163.281 76.5755 161.357 74.8125 158.984 74.8125H90.2344C87.8614 74.8125 85.9375 76.5755 85.9375 78.75C85.9375 80.9245 87.8614 82.6875 90.2344 82.6875Z" fill="#595959"/>
</svg>
