<svg width="132" height="131" viewBox="0 0 316 250" fill="none" xmlns="http://www.w3.org/2000/svg">
<g clip-path="url(#clip0_360_15)">
<path d="M12.8535 75.539C21.0905 60.4296 32.8578 46.9257 47.8289 35.4018C78.6604 11.6699 119.358 -0.886673 162.437 0.048872C203.879 0.947796 242.624 14.7769 271.535 38.9887C300.209 63.0014 316 94.4422 316 127.519V230.475C316 241.241 304.929 250 291.321 250H24.6801C11.0717 250 0.000640869 241.241 0.000640869 230.475V125C0.000640869 107.825 4.32526 91.1835 12.8535 75.539ZM9.87558 230.475C9.87558 236.934 16.5165 242.188 24.6801 242.188H291.321C299.485 242.188 306.126 236.934 306.126 230.475V127.519C306.126 96.4457 291.292 66.9101 264.358 44.354C237.26 21.6611 200.968 8.70022 162.167 7.85843C160.762 7.82766 159.366 7.81302 157.966 7.81302C119.142 7.81302 82.6141 19.5269 54.7154 41.0014C25.8002 63.2587 9.87622 93.0902 9.87622 125V230.475H9.87558Z" fill="#595959"/>
<path d="M241.937 160.156H281.437C286.882 160.156 291.312 163.661 291.312 167.969V222.656C291.312 226.964 286.882 230.469 281.437 230.469H241.937C236.492 230.469 232.062 226.964 232.062 222.656V167.969C232.062 163.661 236.492 160.156 241.937 160.156ZM241.937 222.656H281.437V167.969L241.937 167.968V222.656Z" fill="#595959"/>
<path d="M271.562 195.313C271.562 199.62 267.132 203.125 261.687 203.125C256.242 203.125 251.812 199.62 251.812 195.313C251.812 191.005 256.242 187.5 261.687 187.5C267.132 187.5 271.562 191.005 271.562 195.313Z" fill="#595959"/>
<path d="M271.562 179.688C270.26 179.688 268.988 179.273 268.069 178.545C267.149 177.817 266.625 176.812 266.625 175.781C266.625 174.751 267.149 173.745 268.069 173.018C268.988 172.29 270.26 171.875 271.562 171.875C272.864 171.875 274.136 172.29 275.055 173.018C275.975 173.745 276.5 174.751 276.5 175.781C276.5 176.807 275.975 177.817 275.055 178.545C274.136 179.273 272.864 179.688 271.562 179.688Z" fill="#595959"/>
<path d="M251.812 179.688C250.51 179.688 249.238 179.273 248.319 178.545C247.399 177.817 246.875 176.812 246.875 175.781C246.875 174.751 247.399 173.745 248.319 173.018C249.238 172.29 250.51 171.875 251.812 171.875C253.114 171.875 254.386 172.29 255.305 173.018C256.225 173.745 256.75 174.751 256.75 175.781C256.75 176.812 256.225 177.817 255.305 178.545C254.386 179.273 253.114 179.688 251.812 179.688Z" fill="#595959"/>
<path d="M251.812 210.938C253.114 210.938 254.386 211.353 255.305 212.08C256.225 212.808 256.75 213.814 256.75 214.844C256.75 215.874 256.225 216.88 255.305 217.607C254.386 218.335 253.114 218.75 251.812 218.75C250.516 218.75 249.238 218.335 248.319 217.607C247.399 216.88 246.875 215.869 246.875 214.844C246.875 213.814 247.399 212.808 248.319 212.08C249.238 211.353 250.51 210.938 251.812 210.938Z" fill="#595959"/>
<path d="M271.562 218.75C270.26 218.75 268.988 218.335 268.069 217.607C267.149 216.88 266.625 215.874 266.625 214.844C266.625 213.814 267.149 212.808 268.069 212.08C268.988 211.353 270.26 210.938 271.562 210.938C272.864 210.938 274.136 211.353 275.055 212.08C275.975 212.808 276.5 213.814 276.5 214.844C276.5 215.874 275.975 216.88 275.055 217.607C274.136 218.335 272.859 218.75 271.562 218.75Z" fill="#595959"/>
<path d="M172.812 160.156H212.312C217.757 160.156 222.187 163.661 222.187 167.969V222.656C222.187 226.964 217.757 230.469 212.312 230.469H172.812C167.367 230.469 162.937 226.964 162.937 222.656V167.969C162.937 163.661 167.367 160.156 172.812 160.156ZM172.812 222.656H212.312V167.969L172.812 167.968V222.656Z" fill="#595959"/>
<path d="M202.437 195.313C202.437 199.62 198.007 203.125 192.562 203.125C187.117 203.125 182.687 199.62 182.687 195.313C182.687 191.005 187.117 187.5 192.562 187.5C198.007 187.5 202.437 191.005 202.437 195.313Z" fill="#595959"/>
<path d="M202.437 179.688C201.141 179.688 199.863 179.273 198.944 178.545C198.024 177.817 197.5 176.812 197.5 175.781C197.5 174.751 198.024 173.745 198.944 173.018C199.863 172.29 201.141 171.875 202.437 171.875C203.739 171.875 205.011 172.29 205.93 173.018C206.85 173.745 207.375 174.751 207.375 175.781C207.375 176.812 206.85 177.817 205.93 178.545C205.011 179.273 203.739 179.688 202.437 179.688Z" fill="#595959"/>
<path d="M182.688 179.688C181.385 179.688 180.114 179.273 179.194 178.545C178.275 177.817 177.75 176.812 177.75 175.781C177.75 174.751 178.275 173.745 179.194 173.018C180.114 172.29 181.385 171.875 182.688 171.875C183.99 171.875 185.261 172.29 186.181 173.018C187.1 173.745 187.625 174.751 187.625 175.781C187.625 176.812 187.1 177.817 186.181 178.545C185.261 179.273 183.99 179.688 182.688 179.688Z" fill="#595959"/>
<path d="M182.688 210.938C183.99 210.938 185.261 211.353 186.181 212.08C187.1 212.808 187.625 213.814 187.625 214.844C187.625 215.874 187.1 216.88 186.181 217.607C185.261 218.335 183.99 218.75 182.688 218.75C181.391 218.75 180.114 218.335 179.194 217.607C178.275 216.88 177.75 215.869 177.75 214.844C177.75 213.814 178.275 212.808 179.194 212.08C180.114 211.353 181.386 210.938 182.688 210.938Z" fill="#595959"/>
<path d="M202.437 218.75C201.135 218.75 199.863 218.335 198.944 217.607C198.024 216.88 197.5 215.874 197.5 214.844C197.5 213.814 198.024 212.808 198.944 212.08C199.863 211.353 201.135 210.938 202.437 210.938C203.739 210.938 205.011 211.353 205.93 212.08C206.85 212.808 207.375 213.814 207.375 214.844C207.375 215.874 206.85 216.88 205.93 217.607C205.011 218.335 203.734 218.75 202.437 218.75Z" fill="#595959"/>
<path d="M103.688 160.156H143.188C148.632 160.156 153.062 163.661 153.062 167.969V222.656C153.062 226.964 148.632 230.469 143.188 230.469H103.688C98.2428 230.469 93.8126 226.964 93.8126 222.656V167.969C93.8126 163.661 98.2428 160.156 103.688 160.156ZM103.688 222.656H143.188V167.969L103.688 167.968V222.656Z" fill="#595959"/>
<path d="M133.312 195.313C133.312 199.62 128.882 203.125 123.438 203.125C117.993 203.125 113.563 199.62 113.563 195.313C113.563 191.005 117.993 187.5 123.438 187.5C128.882 187.5 133.312 191.005 133.312 195.313Z" fill="#595959"/>
<path d="M133.313 179.688C132.01 179.688 130.739 179.273 129.819 178.545C128.9 177.817 128.375 176.807 128.375 175.781C128.375 174.751 128.9 173.745 129.819 173.018C130.739 172.29 132.01 171.875 133.313 171.875C134.615 171.875 135.886 172.29 136.806 173.018C137.725 173.745 138.25 174.751 138.25 175.781C138.25 176.812 137.725 177.817 136.806 178.545C135.886 179.273 134.615 179.688 133.313 179.688Z" fill="#595959"/>
<path d="M113.563 179.688C112.26 179.688 110.989 179.273 110.069 178.545C109.15 177.817 108.625 176.812 108.625 175.781C108.625 174.751 109.15 173.745 110.069 173.018C110.989 172.29 112.26 171.875 113.563 171.875C114.865 171.875 116.136 172.29 117.056 173.018C117.975 173.745 118.5 174.751 118.5 175.781C118.5 176.812 117.975 177.817 117.056 178.545C116.136 179.273 114.865 179.688 113.563 179.688Z" fill="#595959"/>
<path d="M113.563 210.938C114.865 210.938 116.136 211.353 117.056 212.08C117.975 212.808 118.5 213.814 118.5 214.844C118.5 215.874 117.975 216.88 117.056 217.607C116.136 218.335 114.865 218.75 113.563 218.75C112.266 218.75 110.989 218.335 110.069 217.607C109.15 216.88 108.625 215.874 108.625 214.844C108.625 213.814 109.15 212.808 110.069 212.08C110.989 211.353 112.266 210.938 113.563 210.938Z" fill="#595959"/>
<path d="M133.313 218.75C132.016 218.75 130.739 218.335 129.819 217.607C128.9 216.88 128.375 215.874 128.375 214.844C128.375 213.814 128.9 212.808 129.819 212.08C130.739 211.353 132.01 210.938 133.313 210.938C134.615 210.938 135.886 211.353 136.806 212.08C137.725 212.808 138.25 213.814 138.25 214.844C138.25 215.869 137.725 216.88 136.806 217.607C135.886 218.335 134.615 218.75 133.313 218.75Z" fill="#595959"/>
<path d="M34.5626 160.156H74.0625C79.5073 160.156 83.9375 163.661 83.9375 167.969V222.656C83.9375 226.964 79.5073 230.469 74.0625 230.469H34.5626C29.1178 230.469 24.6876 226.964 24.6876 222.656V167.969C24.6876 163.661 29.1178 160.156 34.5626 160.156ZM34.5626 222.656H74.0625V167.969L34.5626 167.968V222.656Z" fill="#595959"/>
<path d="M64.1875 195.313C64.1875 199.62 59.7573 203.125 54.3125 203.125C48.8677 203.125 44.4375 199.62 44.4375 195.313C44.4375 191.005 48.8677 187.5 54.3125 187.5C59.7573 187.5 64.1875 191.005 64.1875 195.313Z" fill="#595959"/>
<path d="M64.1875 179.688C62.8914 179.688 61.6138 179.273 60.6942 178.545C59.7746 177.817 59.25 176.812 59.25 175.781C59.25 174.751 59.7746 173.745 60.6942 173.018C61.6138 172.29 62.8852 171.875 64.1875 171.875C65.4898 171.875 66.7612 172.29 67.6808 173.018C68.6004 173.745 69.125 174.751 69.125 175.781C69.125 176.812 68.6004 177.817 67.6808 178.545C66.7612 179.273 65.4898 179.688 64.1875 179.688Z" fill="#595959"/>
<path d="M44.4375 179.688C43.1414 179.688 41.8638 179.273 40.9442 178.545C40.0246 177.817 39.5 176.807 39.5 175.781C39.5 174.756 40.0246 173.745 40.9442 173.018C41.8638 172.29 43.1414 171.875 44.4375 171.875C45.7398 171.875 47.0112 172.29 47.9308 173.018C48.8504 173.745 49.375 174.751 49.375 175.781C49.375 176.812 48.8504 177.817 47.9308 178.545C47.0112 179.273 45.7342 179.688 44.4375 179.688Z" fill="#595959"/>
<path d="M44.4375 210.938C45.7398 210.938 47.0112 211.353 47.9308 212.08C48.8504 212.808 49.375 213.814 49.375 214.844C49.375 215.874 48.8504 216.88 47.9308 217.607C47.0112 218.335 45.7336 218.75 44.4375 218.75C43.1414 218.75 41.8638 218.335 40.9442 217.607C40.0246 216.88 39.5 215.869 39.5 214.844C39.5 213.818 40.0246 212.808 40.9442 212.08C41.8638 211.353 43.1414 210.938 44.4375 210.938Z" fill="#595959"/>
<path d="M64.1875 218.75C62.8914 218.75 61.6138 218.335 60.6942 217.607C59.7746 216.88 59.25 215.874 59.25 214.844C59.25 213.814 59.7746 212.808 60.6942 212.08C61.6138 211.353 62.8852 210.938 64.1875 210.938C65.4898 210.938 66.7612 211.353 67.6808 212.08C68.6004 212.808 69.125 213.814 69.125 214.844C69.125 215.874 68.6004 216.88 67.6808 217.607C66.7612 218.335 65.4898 218.75 64.1875 218.75Z" fill="#595959"/>
<path d="M108.624 97.6566C111.351 97.6566 113.562 99.4056 113.562 101.563C113.562 103.72 111.352 105.469 108.625 105.469C105.902 105.469 103.687 107.221 103.687 109.375V136.719C103.687 138.873 105.902 140.625 108.625 140.625H207.375C210.097 140.625 212.312 138.873 212.312 136.719V109.375C212.312 107.221 210.097 105.469 207.375 105.469H128.374C125.647 105.469 123.437 103.72 123.437 101.563C123.437 99.4056 125.647 97.6566 128.374 97.6566H207.375C215.542 97.6566 222.187 102.914 222.187 109.375V136.719C222.187 143.18 215.542 148.438 207.375 148.438H108.625C100.458 148.438 93.8123 143.18 93.8123 136.719V109.375C93.8123 102.914 100.457 97.6566 108.624 97.6566Z" fill="#595959"/>
<path d="M74.0625 121.094C74.0625 131.864 62.9877 140.625 49.375 140.625C35.7624 140.625 24.6876 131.864 24.6876 121.094C24.6876 119.441 24.9499 117.797 25.4677 116.208C26.1485 114.119 28.8376 112.862 31.481 113.4C34.1219 113.939 35.7112 116.069 35.0304 118.157C34.72 119.11 34.5626 120.098 34.5626 121.094C34.5626 127.555 41.2078 132.813 49.375 132.813C57.5423 132.813 64.1875 127.555 64.1875 121.094C64.1875 114.633 57.5423 109.375 49.375 109.375C48.1166 109.375 46.868 109.5 45.6639 109.745C43.023 110.283 40.3308 109.027 39.6501 106.938C38.9693 104.849 40.5586 102.719 43.1989 102.18C45.2072 101.771 47.2853 101.563 49.3744 101.563C62.9883 101.563 74.0625 110.325 74.0625 121.094Z" fill="#595959"/>
<path d="M266.625 140.625C253.012 140.625 241.937 131.864 241.937 121.094C241.937 119.441 242.2 117.797 242.717 116.208C243.398 114.119 246.087 112.862 248.731 113.4C251.372 113.939 252.961 116.069 252.28 118.157C251.97 119.11 251.812 120.098 251.812 121.094C251.812 127.555 258.457 132.813 266.625 132.813C274.792 132.813 281.437 127.555 281.437 121.094C281.437 114.633 274.792 109.375 266.625 109.375C265.366 109.375 264.118 109.5 262.914 109.745C260.273 110.283 257.58 109.027 256.9 106.938C256.219 104.849 257.808 102.719 260.449 102.18C262.457 101.771 264.535 101.563 266.624 101.563C280.237 101.563 291.312 110.325 291.312 121.094C291.312 131.864 280.238 140.625 266.625 140.625Z" fill="#595959"/>
<path d="M207.375 62.5004C207.375 60.8475 207.637 59.2035 208.155 57.6146C208.836 55.5258 211.526 54.268 214.168 54.8065C216.809 55.3451 218.398 57.475 217.718 59.5638C217.407 60.5165 217.25 61.5048 217.25 62.5004C217.25 68.9618 223.895 74.2191 232.062 74.2191C240.229 74.2191 246.875 68.9618 246.875 62.5004C246.875 56.0389 240.229 50.7816 232.062 50.7816C230.804 50.7816 229.555 50.9061 228.351 51.1517C225.71 51.6893 223.018 50.433 222.337 48.3441C221.656 46.2553 223.246 44.1249 225.886 43.5863C227.894 43.1772 229.972 42.9691 232.062 42.9691C245.674 42.9691 256.749 51.7309 256.749 62.5004C256.749 73.2699 245.674 82.0316 232.062 82.0316C218.449 82.0316 207.375 73.2699 207.375 62.5004Z" fill="#595959"/>
<path d="M83.9377 82.0316C70.325 82.0316 59.2502 73.2699 59.2502 62.5004C59.2502 60.8475 59.5125 59.2035 60.0304 57.6146C60.7111 55.5258 63.4008 54.268 66.0436 54.8065C68.6846 55.3451 70.2738 57.475 69.593 59.5638C69.2826 60.5165 69.1252 61.5048 69.1252 62.5004C69.1252 68.9618 75.7705 74.2191 83.9377 74.2191C92.1049 74.2191 98.7502 68.9618 98.7502 62.5004C98.7502 56.0389 92.1049 50.7816 83.9377 50.7816C82.6792 50.7816 81.4307 50.9061 80.2265 51.1517C77.5862 51.6893 74.8934 50.433 74.2127 48.3441C73.5319 46.2553 75.1212 44.1249 77.7615 43.5863C79.7698 43.1772 81.8479 42.9691 83.9371 42.9691C97.5497 42.9691 108.625 51.7309 108.625 62.5004C108.625 73.2699 97.551 82.0316 83.9377 82.0316Z" fill="#595959"/>
<path d="M158 58.5941C144.387 58.5941 133.312 49.8324 133.312 39.0629C133.312 37.4101 133.575 35.7661 134.092 34.1772C134.773 32.0883 137.463 30.8305 140.106 31.3691C142.747 31.9077 144.336 34.0375 143.655 36.1264C143.345 37.079 143.187 38.0673 143.187 39.0629C143.187 45.5243 149.832 50.7816 158 50.7816C166.167 50.7816 172.812 45.5243 172.812 39.0629C172.812 32.6015 166.167 27.3442 158 27.3442C156.741 27.3442 155.493 27.4687 154.289 27.7143C151.648 28.2519 148.955 26.9956 148.275 24.9067C147.594 22.8178 149.183 20.6875 151.824 20.1489C153.832 19.7397 155.91 19.5317 157.999 19.5317C171.612 19.5317 182.687 28.2934 182.687 39.0629C182.687 49.8324 171.613 58.5941 158 58.5941Z" fill="#595959"/>
</g>
<defs>
<clipPath id="clip0_360_15">
<rect width="316" height="250" fill="white" transform="matrix(-1 0 0 1 316 0)"/>
</clipPath>
</defs>
</svg>
